<svg data-v-423bf9ae="" xmlns="http://www.w3.org/2000/svg" viewBox="0 0 336.96041034064183 60" class="font"><!----><!----><!----><g data-v-423bf9ae="" id="e9f701fe-b20f-4d38-80fb-6e1f94ffe6d7" fill="black" transform="matrix(5.395683046021815,0,0,5.395683046021815,-0.9172659019107527,2.5899284418421153)"><path d="M5.38 2.44L8.36 2.44L8.36 0.71L0.17 0.71L0.17 2.44L3.12 2.44L3.12 10.50L5.38 10.50ZM16.03 9.10L15.51 9.10C15.11 9.10 14.98 8.90 14.98 8.55L14.98 5.60C14.98 3.81 14.03 2.86 11.91 2.86C9.83 2.86 8.82 3.79 8.69 5.14L10.71 5.26C10.71 4.56 11.09 4.17 11.79 4.17C12.46 4.17 12.85 4.49 12.85 5.35L12.85 5.98L12.11 5.98C9.65 5.98 8.40 6.65 8.40 8.40C8.40 9.53 9.16 10.64 10.82 10.64C11.84 10.64 12.68 10.21 13.03 9.25C13.05 10.16 13.79 10.64 14.85 10.64C15.33 10.64 15.55 10.63 16.03 10.58ZM11.58 9.24C10.86 9.24 10.53 8.75 10.53 8.20C10.53 7.36 11.19 7.10 11.90 7.10L12.85 7.10L12.85 7.66C12.85 8.68 12.32 9.24 11.58 9.24ZM21.74 10.50L24.05 10.50L21.27 6.59L23.90 3.00L21.59 3.00L20.08 5.32L18.54 3.00L16.23 3.00L18.87 6.61L16.10 10.50L18.38 10.50L20.08 7.88ZM25.10 10.50L27.27 10.50L27.27 3.00L25.10 3.00ZM25.10 2.06L27.27 2.06L27.27 0.01L25.10 0.01ZM36.67 7.70C36.67 6.40 35.84 5.50 34.34 5.31C35.52 5.03 36.11 4.30 36.11 3.19C36.11 1.54 34.80 0.71 32.54 0.71L29.15 0.71L29.15 10.50L32.87 10.50C35.07 10.50 36.67 9.67 36.67 7.70ZM34.40 7.53C34.40 8.54 33.70 8.88 32.66 8.88L31.35 8.88L31.35 6.26L32.59 6.26C33.59 6.26 34.40 6.54 34.40 7.53ZM33.87 3.44C33.87 4.24 33.40 4.59 32.34 4.59L31.35 4.59L31.35 2.31L32.33 2.31C33.38 2.31 33.87 2.62 33.87 3.44ZM43.16 6.75C43.16 8.41 42.66 9.18 41.59 9.18C40.64 9.18 40.07 8.33 40.07 6.75C40.07 5.17 40.57 4.38 41.64 4.38C42.60 4.38 43.16 5.18 43.16 6.75ZM45.39 6.73C45.39 4.45 44.30 2.86 41.62 2.86C39.06 2.86 37.83 4.47 37.83 6.73C37.83 9.09 39.07 10.64 41.58 10.64C44.14 10.64 45.39 9.10 45.39 6.73ZM51.76 6.75C51.76 8.41 51.25 9.18 50.19 9.18C49.24 9.18 48.66 8.33 48.66 6.75C48.66 5.17 49.17 4.38 50.23 4.38C51.20 4.38 51.76 5.18 51.76 6.75ZM53.98 6.73C53.98 4.45 52.89 2.86 50.22 2.86C47.66 2.86 46.42 4.47 46.42 6.73C46.42 9.09 47.67 10.64 50.18 10.64C52.74 10.64 53.98 9.10 53.98 6.73ZM60.26 10.50L62.62 10.50L59.86 5.96L62.40 3.00L60.07 3.00L57.62 5.95L57.62-0.48L55.44-0.48L55.44 10.50L57.62 10.50L57.62 7.87L58.38 7.24Z"></path></g><!----><!----></svg>