<svg id="Layer_3" data-name="Layer 3" xmlns="http://www.w3.org/2000/svg" xmlns:xlink="http://www.w3.org/1999/xlink" viewBox="0 0 866.28 696.27"><defs><style>.cls-1{fill:#f1f2f2;}.cls-2{fill:#63c856;}.cls-3{fill:url(#linear-gradient);}.cls-4{fill:#fff;}.cls-5{fill:url(#linear-gradient-2);}.cls-6{fill:#8f5b31;}.cls-7{fill:none;stroke:#63c856;stroke-miterlimit:10;stroke-width:2px;}.cls-8{fill:#cb9d2c;}.cls-9{opacity:0.63;}.cls-10{fill:#a81e22;}.cls-11,.cls-12{fill:#2b2b2b;}.cls-11{opacity:0.8;}.cls-13{fill:#c6e1dc;opacity:0.85;}.cls-14{fill:#d4e0ed;}.cls-15{fill:#e4e4e4;}.cls-16{fill:#232121;}.cls-17{fill:#888;}</style><linearGradient id="linear-gradient" x1="1015.83" y1="340.57" x2="1141.36" y2="340.57" gradientTransform="matrix(-1, 0, 0, 1, 1418.44, 0)" gradientUnits="userSpaceOnUse"><stop offset="0" stop-color="#ff7d49"/><stop offset="0.2" stop-color="#fb7747"/><stop offset="0.47" stop-color="#f26541"/><stop offset="0.78" stop-color="#e14837"/><stop offset="1" stop-color="#d32f2f"/></linearGradient><linearGradient id="linear-gradient-2" x1="1065.23" y1="282.39" x2="1113.05" y2="378.02" xlink:href="#linear-gradient"/></defs><title>route choice</title><polygon class="cls-1" points="468.27 257.76 468.27 193.82 280.63 193.82 211.41 116.42 538.53 116.42 607.75 193.82 550.56 257.76 468.27 257.76"/><polygon class="cls-1" points="403.56 398.56 348.35 336.84 395 284.68 560.54 284.68 624.77 212.85 690.99 286.89 690.99 516.87 591.67 516.87 591.67 634.65 438.93 634.65 438.93 550.84 403.56 511.3 403.56 398.56"/><path class="cls-2" d="M345.54,356.42l92.71,103.65H611.78v37H552.62L447.28,614.87H301.77V413C301.77,384.19,320.8,360.44,345.54,356.42Z" transform="translate(-167.58 -239.33)"/><path class="cls-1" d="M882.65,631.69V515.07L740.16,355.76H930.81c28.25,0,51.16,25.61,51.16,57.2V631.69Z" transform="translate(-167.58 -239.33)"/><path class="cls-1" d="M457.24,641.79l41.67-46.59L547.07,649V761.78l35.36,39.53V874H352.94c-28.26,0-51.17-25.61-51.17-57.21v-175Z" transform="translate(-167.58 -239.33)"/><path class="cls-1" d="M783.33,783.12h99.32V658.61H982V816.77c0,31.6-22.91,57.21-51.16,57.21H783.33Z" transform="translate(-167.58 -239.33)"/><path class="cls-3" d="M277.42,309.12c0-38.54,27.95-69.79,62.42-69.79s62.42,31.25,62.42,69.79c0,0,8.79,73.92-62.42,132.69C268.63,383,277.42,309.12,277.42,309.12Z" transform="translate(-167.58 -239.33)"/><path class="cls-4" d="M336.18,359.51C364,362,387.1,336.17,384.9,305c-1.72-24.5-19.48-44.35-41.39-46.28-27.85-2.45-50.92,23.34-48.73,54.48C296.51,337.72,314.26,357.57,336.18,359.51Z" transform="translate(-167.58 -239.33)"/><path class="cls-5" d="M337.9,335.78c14.74,1.3,27-12.35,25.79-28.83-.92-13-10.31-23.46-21.91-24.48-14.73-1.3-26.94,12.35-25.78,28.82C316.92,324.26,326.31,334.76,337.9,335.78Z" transform="translate(-167.58 -239.33)"/><ellipse class="cls-2" cx="88.79" cy="539.74" rx="88.79" ry="99.27"/><ellipse class="cls-2" cx="56.56" cy="612.35" rx="30.47" ry="34.07"/><polygon class="cls-6" points="56.41 612.28 63.98 593.95 81.26 602.86 81.26 553.2 99.32 553.2 99.32 572.57 122.6 562.31 129.22 581.1 99.32 594.27 99.32 681.07 81.26 681.07 81.26 625.11 56.41 612.28"/><ellipse class="cls-2" cx="75.62" cy="476.63" rx="45.52" ry="50.9"/><polyline class="cls-7" points="427.25 634.65 427.25 563.14 393.02 518.77 393.02 408.6 323.19 326.9"/><path class="cls-8" d="M561.37,887.93c1.3,6.47,5.54,21,10.85,24.57,1.56,1.07,49.36-.62,66.77-.64-.53-2.28-.82-14.29-.82-16.73,0-17.42,14.12-29.6,31.52-29.6s31.53,12.18,31.53,29.6c0,2.34,0,13.34-.48,15.54,46.13-.33,169.47-2.42,212.89-2.26-.32-1.81-.5-11.38-.5-13.28,0-17.42,14.11-29.6,31.52-29.6s16.12,12.18,16.12,29.6c0,1.68-.14,11-.39,12.65,5.24-.07,59.8-3.91,59.8-3.91s15.63-14.16,13.48-30.19c-1.28-9.64-5.42-19.2-6.58-23.82-5.46-21.63-22.31-25-22.31-25-12.53-7.71-33.25-11.08-41.44-16.38-30.83-18.31-41.61-20-44.32-21.2-13.49-5.78-109.85-20.23-174.14,2.09l-51,27.14s-92.81,19-118,41.27c0,0-9,7-11.26,21.32C564.16,881.76,561.07,885.2,561.37,887.93Z" transform="translate(-167.58 -239.33)"/><path class="cls-9" d="M779.07,847a1.8,1.8,0,0,0,1.79,1.8h14.36A1.81,1.81,0,0,0,797,847h0a1.81,1.81,0,0,0-1.81-1.8H780.86a1.8,1.8,0,0,0-1.79,1.8Z" transform="translate(-167.58 -239.33)"/><path class="cls-9" d="M869,847a1.8,1.8,0,0,0,1.79,1.8h14.36A1.81,1.81,0,0,0,887,847h0a1.81,1.81,0,0,0-1.81-1.8H870.79A1.8,1.8,0,0,0,869,847Z" transform="translate(-167.58 -239.33)"/><path class="cls-10" d="M1022.58,840.87c-2.3-1.14-14.61-2.56-14.61,3.26,0,2.56,19.92,9.32,19.92,9.32S1026.44,842.8,1022.58,840.87Z" transform="translate(-167.58 -239.33)"/><path class="cls-11" d="M905.2,890.37c-3.46-17.83,27.8-41,37.81-46s9.82-24.68,8.76-27.17c-4.5-10.6-43.19-28.08-49.79-30.19-5.21-1.67-51-5.38-69.77-4.44-1,4.28-5,35-7.5,53.72s-7.19,58.31-7.19,58.31Zm-2.89-1.12-83.51,5s5.25-40.77,7.59-58.67,6.38-47.56,7.11-51.17c17.79-.9,63.54,2.26,68.48,3.86,6.26,2,41.76,18.3,46.42,29.36,1,2.37,1.08,21.32-8.41,26.09S899,872.24,902.31,889.25Z" transform="translate(-167.58 -239.33)"/><path class="cls-12" d="M984,819.08c10.72,4.12,35,15.09,22.82,12.2s-105.66,1.29-136.61,7.07-136.91,1-160.35,1.93-108,3.85-120.2,14.45c-9.86,2.88-15.47,5.78-5.16-2.9S659.2,829.67,707,827.75s110.16,1,158-2.89C907.39,821.45,976.51,816.19,984,819.08Z" transform="translate(-167.58 -239.33)"/><path class="cls-13" d="M724.37,827.06c-8.79,1.36,31.8-27.13,51.07-32.36s48.18-5.21,48.18-5.21l-4.5,34.79S731.12,826,724.37,827.06Z" transform="translate(-167.58 -239.33)"/><path class="cls-14" d="M772.32,792.43c-21.55,5.84-66.94,37.71-57.11,36.19,7.54-1.17,106-3.11,106-3.11l5-38.91S793.87,786.6,772.32,792.43ZM818.8,824s-88,1.74-94.74,2.78c-8.8,1.37,31.79-27.13,51.07-32.35s48.17-5.23,48.17-5.23Z" transform="translate(-167.58 -239.33)"/><path class="cls-12" d="M572,912.25c-5.31-3.61-9.56-18.1-10.85-24.57-.3-2.73,2.79-6.16,3.22-8.82,2.29-14.36,11.26-21.32,11.26-21.32,5.14-4.56,13.1-9,22.5-13.11,11.45,8.22-4.05,24.51-4.05,24.51-14.46,10.59-10.6,24.09-5.78,32.76a96.57,96.57,0,0,1,4.85,10.76C581.66,912.66,572.64,912.71,572,912.25Z" transform="translate(-167.58 -239.33)"/><path class="cls-15" d="M582.42,858.58C593,851.58,603,848,613.9,848.3c8.47.25,15.87.08,5.45,6.43-23.76,14.45-27.46,17.27-39.59,15C570.83,868.05,582.42,858.58,582.42,858.58Z" transform="translate(-167.58 -239.33)"/><path class="cls-13" d="M839.67,825l3.22-35.49s41.5-.94,59.42,5.91c16.38,6.27,39.83,17.39,27.29,21.57s-12.84,2.79-35,4.88C876.9,823.56,839.67,825,839.67,825Z" transform="translate(-167.58 -239.33)"/><path class="cls-14" d="M836.08,825.5s41.06-1.61,60.57-3.45c24.44-2.31,24.8-.78,38.62-5.38s-12-16.88-30.12-23.79c-19.76-7.55-65.53-6.52-65.53-6.52ZM894,821.25c-17.7,1.67-54.92,3.13-54.92,3.13l3.22-35.49s41.49-.94,59.42,5.91c16.38,6.27,39.82,17.4,27.29,21.57S916.12,819.16,894,821.25Z" transform="translate(-167.58 -239.33)"/><path class="cls-12" d="M912.26,886.52c-3.83,1.54-159.27,6.46-214.87,9.32-14.26.73-4.25,3.4-4.25,3.4l219.12-1.8Z" transform="translate(-167.58 -239.33)"/><path class="cls-16" d="M703.18,898a37.58,37.58,0,1,0-37.58,37.57A37.57,37.57,0,0,0,703.18,898Z" transform="translate(-167.58 -239.33)"/><path class="cls-17" d="M691.09,898a25.52,25.52,0,0,1-25.49,25.49h0A25.5,25.5,0,0,1,640.12,898h0a25.49,25.49,0,0,1,25.48-25.49h0A25.51,25.51,0,0,1,691.09,898Zm-3.83,0h0a21.7,21.7,0,0,0-21.66-21.66h0A21.68,21.68,0,0,0,644,898h0a21.67,21.67,0,0,0,21.65,21.65h0A21.69,21.69,0,0,0,687.26,898Z" transform="translate(-167.58 -239.33)"/><path class="cls-17" d="M643.62,905.74a24.8,24.8,0,0,0,2.33,4.8c6.93-6.15,13.25-9.56,15-7.84s-1.68,8.06-7.82,15a23.25,23.25,0,0,0,7.43,3.1c.56-9.26,2.61-16.14,5.06-16.14s4.5,6.88,5.06,16.14a24.77,24.77,0,0,0,2.64-.76,23.18,23.18,0,0,0,4.8-2.33c-6.15-6.92-9.57-13.24-7.84-15s8,1.69,15,7.84a23.78,23.78,0,0,0,3.08-7.44c-9.26-.55-16.12-2.61-16.12-5.06s6.86-4.5,16.12-5.06a26.37,26.37,0,0,0-.76-2.65,23.07,23.07,0,0,0-2.32-4.79c-6.93,6.15-13.25,9.58-15,7.83s1.69-8,7.82-15a23.38,23.38,0,0,0-7.42-3.08c-.56,9.25-2.61,16.12-5.06,16.12s-4.5-6.87-5.06-16.12a22.88,22.88,0,0,0-7.44,3.08c6.15,6.93,9.56,13.24,7.83,15s-8-1.68-15-7.83a23.59,23.59,0,0,0-3.08,7.44c9.26.56,16.11,2.61,16.11,5.06s-6.85,4.51-16.1,5.06A22.48,22.48,0,0,0,643.62,905.74Z" transform="translate(-167.58 -239.33)"/><path class="cls-12" d="M976.5,885.56l55.24-2.42-2.89,7.23s-54.07,4.8-50.58,2.66C981.4,891.1,976.5,885.56,976.5,885.56Z" transform="translate(-167.58 -239.33)"/><path class="cls-11" d="M712.5,899.05l105.15-1.28,15.18-115.35s-52.58,3-63.49,6.15S713,819.91,709.92,822.45c-3.5,2.92-9.22,10.81-11.56,17.83S712.5,899.05,712.5,899.05Zm-11.82-58.69c2.23-6.78,7.68-14.34,11-17.16,2.92-2.46,46.71-29.8,57.15-32.82s61.24-6,61.24-6L815.58,895.82l-101.8.34S698.44,847.15,700.68,840.36Z" transform="translate(-167.58 -239.33)"/><path class="cls-16" d="M982.6,898A37.58,37.58,0,1,0,945,935.61,37.57,37.57,0,0,0,982.6,898Z" transform="translate(-167.58 -239.33)"/><path class="cls-17" d="M970.51,898A25.51,25.51,0,0,1,945,923.53h0A25.49,25.49,0,0,1,919.55,898h0A25.48,25.48,0,0,1,945,872.55h0A25.51,25.51,0,0,1,970.51,898Zm-3.82,0h0A21.71,21.71,0,0,0,945,876.38h0A21.69,21.69,0,0,0,923.37,898h0A21.68,21.68,0,0,0,945,919.69h0A21.7,21.7,0,0,0,966.69,898Z" transform="translate(-167.58 -239.33)"/><path class="cls-17" d="M923.05,905.74a24.77,24.77,0,0,0,2.32,4.8c7-6.15,13.26-9.56,15-7.84s-1.68,8.06-7.83,15a23.35,23.35,0,0,0,7.43,3.1c.56-9.26,2.62-16.14,5.06-16.14s4.51,6.88,5.06,16.14a24.12,24.12,0,0,0,2.64-.76,22.94,22.94,0,0,0,4.8-2.33c-6.15-6.92-9.56-13.24-7.84-15s8.06,1.69,15,7.84a23.8,23.8,0,0,0,3.09-7.44c-9.26-.55-16.13-2.61-16.13-5.06s6.87-4.5,16.12-5.06a26.29,26.29,0,0,0-.75-2.65,23.1,23.1,0,0,0-2.33-4.79c-6.92,6.15-13.24,9.58-15,7.83s1.69-8,7.82-15a23.29,23.29,0,0,0-7.42-3.08c-.55,9.25-2.61,16.12-5.06,16.12s-4.5-6.87-5.06-16.12a23,23,0,0,0-7.43,3.08c6.15,6.93,9.55,13.24,7.83,15s-8-1.68-15-7.83a23.87,23.87,0,0,0-3.1,7.44c9.28.56,16.13,2.61,16.13,5.06s-6.85,4.51-16.12,5.06A20.79,20.79,0,0,0,923.05,905.74Z" transform="translate(-167.58 -239.33)"/></svg>